<?xml version="1.0" encoding="UTF-8"?><svg id="Calque_2" xmlns="http://www.w3.org/2000/svg" viewBox="0 0 132.8492 104.7082"><defs><style>.cls-1{fill:#fff;}.cls-2{isolation:isolate;}.cls-3{fill:#e41c31;}.cls-4{fill:#2b4998;}.cls-5{fill:none;}</style></defs><g id="Calque_1-2"><g><rect class="cls-5" x="14.3012" y="63.2572" width="103.6425" height="41.451"/><g class="cls-2"><path class="cls-1" d="M25.1225,72.8295h-6.9551l-1.54,2.3906h-2.7168l8.1689-11.9717h3.1152l3.0977,11.9717h-2.627l-.543-2.3906Zm-5.8867-1.6484h5.5059l-1.4307-6.2842-4.0752,6.2842Z"/><path class="cls-1" d="M47.6382,75.2201l.6699-3.2236c.0361-.2178,.0732-.3984,.0732-.5615,0-.6523-.3809-.8877-1.2139-.8877h-6.9004l-.9785,4.6729h-2.4629l2.5352-11.9717h9.3643c2.5176,0,3.3691,.4521,3.3691,1.7383,0,.3262-.0547,.6885-.1455,1.123l-.3438,1.666c-.2539,1.2324-.9424,1.7939-1.6484,1.9932,.5068,.126,.9424,.5068,.9424,1.3398,0,.1992-.0186,.417-.0732,.6523l-.7236,3.459h-2.4639Zm1.8115-8.6572c.0537-.2539,.0908-.4531,.0908-.6523,0-.6885-.4531-.96-1.7754-.96h-6.3027l-.8516,4.0391h7.0273c.9785,0,1.3945-.416,1.5938-1.376l.2178-1.0508Z"/><path class="cls-1" d="M59.0874,75.2201l2.5352-11.9717h12.8062l-.3633,1.7021h-10.3237l-.7422,3.46h6.2852l-.3262,1.6113h-6.2852l-.7607,3.4961h10.3247l-.3457,1.7021h-12.8042Z"/><path class="cls-1" d="M84.9892,75.2201c-2.6445,0-3.7676-.3438-3.7676-1.8477,0-.2891,.0371-.6338,.127-1.0137l1.3223-6.249c.4883-2.3359,1.6836-2.8613,4.8535-2.8613h8.5137l-.3633,1.7021h-7.8594c-1.7754,0-2.5,.3623-2.7715,1.666l-1.1055,5.2529c-.0352,.1992-.0723,.3984-.0723,.543,0,.8701,.6348,1.1055,2.1191,1.1055h7.8613l-.3457,1.7021h-8.5117Z"/><path class="cls-1" d="M102.5244,75.2201l2.5352-11.9717h12.8066l-.3633,1.7021h-10.3242l-.7422,3.46h6.2852l-.3262,1.6113h-6.2852l-.7598,3.4961h10.3242l-.3457,1.7021h-12.8047Z"/></g><g><path class="cls-1" d="M131.115,45.0621c-19.537-9.6229-37.5239-11.4986-49.1714-11.3761-12.5721,.1313-20.5568,2.5317-20.636,2.5558l-2.516,.7699-.1181-15.2346-24.159,10.5645-.1767,.041c-2.4537,.5693-5.9807,.6905-8.8476-1.9612-5.7565-5.3248-4.9814-18.3947-4.4154-23.5661L0,4.0067,.5257,.1173,25.5058,3.4938l-.2978,1.9709c-.0065,.0432-.6583,4.4432-.5531,9.45,.1318,6.2646,1.3428,10.6308,3.5018,12.6266,1.2739,1.1774,2.9513,1.524,5.1246,1.0559l29.2707-12.7998,.1244,16.0473c3.4251-.7772,10.1679-1.9886,19.2263-2.0832,12.0768-.1225,30.7158,1.8152,50.9465,11.7797l-1.7342,3.5208Z"/><path class="cls-1" d="M41.8647,49.5209h-3.9247c0-3.4993-5.5803-7.2458-13.8874-7.2458-6.5686,0-13.8874,2.9757-13.8874,7.2458h-3.9247c0-6.2639,7.8241-11.1705,17.8121-11.1705s17.8121,4.9066,17.8121,11.1705Z"/><path class="cls-1" d="M116.5852,49.5209h-3.9247c0-3.4993-5.5803-7.2458-13.8874-7.2458-6.5686,0-13.8874,2.9757-13.8874,7.2458h-3.9247c0-6.2639,7.8241-11.1705,17.8121-11.1705s17.8121,4.9066,17.8121,11.1705Z"/></g><g><polygon class="cls-4" points="61.4279 85.6281 53.5483 85.6281 50.8916 82.3072 61.4279 82.3072 61.4279 85.6281"/><rect class="cls-1" x="61.4279" y="82.3072" width="9.4193" height="3.3209"/><polygon class="cls-3" points="79.1495 85.6281 70.8472 85.6281 70.8472 82.3072 81.3534 82.3072 79.1495 85.6281"/></g><path class="cls-1" d="M123.4198,21.4749c-.1436-1.3214-.4021-2.5881-.7683-3.7649-1.5139-4.8555-4.7885-8.8813-9.2205-11.335-5.6057-3.0935-12.3654-3.2689-18.0813-.4677l-1.7271-3.5243c6.8643-3.3638,14.9789-3.1557,21.7069,.5572,5.3225,2.9466,9.2528,7.7769,11.0689,13.6026,.4416,1.4191,.7521,2.9354,.9231,4.5079l-3.9017,.4243Z"/><path class="cls-1" d="M115.6019,22.3028c-.079-.6853-.213-1.3816-.3983-2.0692-.8492-2.9714-2.8355-5.4711-5.5846-7.0096-2.7229-1.5101-5.8921-1.8677-8.9182-1.003-.5842,.1635-1.2206,.4054-1.9554,.7422l-1.6354-3.5677c.9237-.4234,1.7489-.7346,2.5228-.9511,4.0227-1.1495,8.251-.6706,11.8962,1.3509,3.6666,2.052,6.3124,5.385,7.4563,9.3889,.2435,.9032,.4142,1.7917,.5154,2.6691l-3.8988,.4496Z"/><path class="cls-1" d="M107.7476,23.0709c-.019-.209-.0575-.4229-.1142-.6361-.3069-1.0107-.9496-1.8188-1.8117-2.2774-.9359-.4977-2.002-.6225-3.0032-.3516-.1863,.0507-.3688,.1219-.5715,.2233l-1.7551-3.5105c.434-.217,.8584-.3806,1.2975-.5003,1.9697-.5339,4.0555-.2939,5.8754,.674,1.8031,.9592,3.1303,2.6085,3.7366,4.6442l.0127,.0442c.1201,.4412,.2017,.8902,.2421,1.3345l-3.9085,.3556Z"/></g></g></svg>